name Walk9.mot
datacolumns 19
datarows 15
range 1.85500000 1.92500000
endheader

                time	   L_ground_force_vx	   L_ground_force_vy	   L_ground_force_vz	   L_ground_force_px	   L_ground_force_py	   L_ground_force_pz	   R_ground_force_vx	   R_ground_force_vy	   R_ground_force_vz	   R_ground_force_px	   R_ground_force_py	   R_ground_force_pz	   L_ground_torque_x	   L_ground_torque_y	   L_ground_torque_z	   R_ground_torque_x	   R_ground_torque_y	   R_ground_torque_z	
          1.85500000	         -0.00000000	         -0.00000000	          0.00000000	          0.00000000	          0.00000000	          0.00000000	        -31.32753784	        522.94921085	        -39.10008275	          0.26788571	          0.00000000	          0.09926712	          0.00000000	         -0.00000000	          0.00000000	          0.00000000	          0.75231486	          0.00000000	
          1.86000000	          0.00000000	          0.00000000	          0.00000000	         -0.00000000	          0.00000000	         -0.00000000	        -28.59847382	        517.07443185	        -38.99441349	          0.26914572	          0.00000000	          0.09978924	          0.00000000	          0.00000000	          0.00000000	          0.00000000	          0.66592524	          0.00000000	
          1.86500000	          0.00000000	          0.00000000	          0.00000000	         -0.00000000	          0.00000000	         -0.00000000	        -26.01829684	        512.01957838	        -38.86973909	          0.27035089	          0.00000000	          0.10032033	          0.00000000	          0.00000000	          0.00000000	          0.00000000	          0.62952693	          0.00000000	
          1.87000000	         -0.00000000	          0.00000000	         -0.00000000	         -0.00000000	          0.00000000	         -0.00000000	        -23.51315558	        507.63930269	        -38.72168680	          0.27137157	          0.00000000	          0.10091163	          0.00000000	         -0.00000000	          0.00000000	          0.00000000	          0.62129274	          0.00000000	
          1.87500000	         -0.00000000	         -0.00000000	         -0.00000000	          0.00000000	          0.00000000	          0.00000000	        -21.05938293	        503.55266853	        -38.53176180	          0.27233341	          0.00000000	          0.10146298	          0.00000000	         -0.00000000	          0.00000000	          0.00000000	          0.56037799	          0.00000000	
          1.88000000	         -0.00000000	         -0.00000000	          0.00000000	          0.00000000	          0.00000000	          0.00000000	        -18.54255023	        499.77498380	        -38.31172333	          0.27345945	          0.00000000	          0.10187334	          0.00000000	         -0.00000000	          0.00000000	          0.00000000	          0.48624926	          0.00000000	
          1.88500000	          0.00000000	          0.00000000	          0.00000000	          0.00000000	          0.00000000	          0.00000000	        -16.05088956	        496.52682613	        -38.07213886	          0.27451864	          0.00000000	          0.10242706	          0.00000000	          0.00000000	          0.00000000	          0.00000000	          0.43488639	          0.00000000	
          1.89000000	          0.00000000	          0.00000000	          0.00000000	         -0.00000000	          0.00000000	         -0.00000000	        -13.71024814	        493.48196588	        -37.81264332	          0.27537254	          0.00000000	          0.10294643	          0.00000000	          0.00000000	          0.00000000	          0.00000000	          0.39410359	          0.00000000	
          1.89500000	          0.00000000	          0.00000000	         -0.00000000	         -0.00000000	          0.00000000	         -0.00000000	        -11.52783335	        490.64279897	        -37.56189429	          0.27617813	          0.00000000	          0.10326453	          0.00000000	          0.00000000	          0.00000000	          0.00000000	          0.37455016	          0.00000000	
          1.90000000	         -0.00000000	         -0.00000000	         -0.00000000	         -0.00000000	          0.00000000	         -0.00000000	         -9.61201416	        488.24203684	        -37.40909816	          0.27714596	          0.00000000	          0.10347240	          0.00000000	         -0.00000000	          0.00000000	          0.00000000	          0.31015048	          0.00000000	
          1.90500000	         -0.00000000	         -0.00000000	         -0.00000000	          0.00000000	          0.00000000	          0.00000000	         -7.97763109	        486.28904746	        -37.32670565	          0.27798790	          0.00000000	          0.10359035	          0.00000000	         -0.00000000	          0.00000000	          0.00000000	          0.21762456	          0.00000000	
          1.91000000	         -0.00000000	         -0.00000000	          0.00000000	          0.00000000	          0.00000000	          0.00000000	         -6.42233578	        485.19607518	        -37.27232843	          0.27900169	          0.00000000	          0.10382026	          0.00000000	         -0.00000000	          0.00000000	          0.00000000	          0.14425369	          0.00000000	
          1.91500000	          0.00000000	          0.00000000	          0.00000000	         -0.00000000	          0.00000000	         -0.00000000	         -4.76331063	        484.69452972	        -37.23073351	          0.28034510	          0.00000000	          0.10422659	          0.00000000	          0.00000000	          0.00000000	          0.00000000	          0.10457102	          0.00000000	
          1.92000000	          0.00000000	          0.00000000	          0.00000000	         -0.00000000	          0.00000000	         -0.00000000	         -2.96384587	        484.28660381	        -37.25229740	          0.28124733	          0.00000000	          0.10432120	          0.00000000	          0.00000000	          0.00000000	          0.00000000	          0.09074572	          0.00000000	
          1.92500000	          0.00000000	          0.00000000	         -0.00000000	         -0.00000000	          0.00000000	         -0.00000000	         -1.08601718	        484.57957144	        -37.27155632	          0.28190828	          0.00000000	          0.10436204	          0.00000000	          0.00000000	          0.00000000	          0.00000000	          0.05600665	          0.00000000	
